<svg width="80" height="81" viewBox="0 0 80 81" fill="none" xmlns="http://www.w3.org/2000/svg">
<path fill-rule="evenodd" clip-rule="evenodd" d="M40.0002 80.1361C62.0913 80.1361 80 62.1969 80 40.0681C80 17.9391 62.0913 0 40.0002 0C17.9087 0 0 17.9391 0 40.0681C0 62.1969 17.9087 80.1361 40.0002 80.1361Z" fill="white"/>
<path fill-rule="evenodd" clip-rule="evenodd" d="M19.15 39.9522L25.9763 33.0972C26.2025 32.8662 26.3289 32.5603 26.3289 32.236C26.3289 31.5598 25.7802 31.0107 25.1054 31.0107C24.7766 31.0107 24.4682 31.1398 24.2358 31.3757C24.2352 31.3768 17.4156 38.2039 17.4156 38.2039L10.565 31.3653C10.3334 31.1366 10.0268 31.0107 9.70152 31.0107C9.02721 31.0107 8.47852 31.5594 8.47852 32.2349C8.47852 32.5645 8.6097 32.8737 8.84554 33.1066L15.6711 39.9425L8.84921 46.789C8.60916 47.0253 8.47852 47.3355 8.47852 47.6662C8.47852 48.342 9.02721 48.8907 9.70152 48.8907C10.0273 48.8907 10.3342 48.7639 10.565 48.5327L17.4051 41.6903L24.2192 48.5076C24.4607 48.7581 24.7725 48.8915 25.1054 48.8915C25.7796 48.8915 26.3283 48.342 26.3283 47.6662C26.3283 47.3401 26.2022 47.0338 25.9725 46.8023L19.15 39.9522Z" fill="#00ADED"/>
<path fill-rule="evenodd" clip-rule="evenodd" d="M59.7305 39.9501C59.7305 41.1778 60.727 42.1766 61.9543 42.1766C63.1783 42.1766 64.1755 41.1778 64.1755 39.9501C64.1755 38.7222 63.1783 37.7236 61.9543 37.7236C60.727 37.7236 59.7305 38.7222 59.7305 39.9501Z" fill="#00ADED"/>
<path fill-rule="evenodd" clip-rule="evenodd" d="M55.5142 39.9515C55.5142 36.3962 58.4015 33.5037 61.951 33.5037C65.4991 33.5037 68.3867 36.3962 68.3867 39.9515C68.3867 43.5058 65.4991 46.3974 61.951 46.3974C58.4015 46.3974 55.5142 43.5058 55.5142 39.9515ZM52.9824 39.9515C52.9824 44.9044 57.0055 48.9339 61.951 48.9339C66.8963 48.9339 70.9218 44.9044 70.9218 39.9515C70.9218 34.9977 66.8963 30.9668 61.951 30.9668C57.0055 30.9668 52.9824 34.9977 52.9824 39.9515Z" fill="#00ADED"/>
<path fill-rule="evenodd" clip-rule="evenodd" d="M52.3446 31.1212L51.9683 31.1201C50.8387 31.1201 49.7491 31.477 48.8393 32.1794C48.7191 31.6297 48.2287 31.2164 47.6446 31.2164C46.9722 31.2164 46.4333 31.7559 46.4316 32.4308C46.4316 32.4331 46.4357 47.5621 46.4357 47.5621C46.4375 48.2356 46.9862 48.7833 47.6589 48.7833C48.3317 48.7833 48.88 48.2356 48.8817 47.5603C48.8817 47.5577 48.8826 38.2566 48.8826 38.2566C48.8826 35.1555 49.1655 33.9034 51.8171 33.5715C52.0625 33.541 52.3289 33.5458 52.33 33.5458C53.0558 33.5208 53.5713 33.0212 53.5713 32.3463C53.5713 31.6707 53.0208 31.1212 52.3446 31.1212Z" fill="#00ADED"/>
<path fill-rule="evenodd" clip-rule="evenodd" d="M28.8592 38.4717C28.8592 38.4384 28.8616 38.4032 28.8634 38.3689C29.5736 35.5569 32.1157 33.4764 35.1432 33.4764C38.2075 33.4764 40.773 35.6082 41.4471 38.4717H28.8592ZM43.9513 38.2405C43.4245 35.7408 42.0583 33.6876 39.9778 32.3693C36.937 30.4353 32.9213 30.5421 29.9839 32.6344C27.5881 34.3417 26.2051 37.1348 26.2051 40.0121C26.2051 40.7334 26.2919 41.4617 26.4726 42.1783C27.3773 45.7434 30.4368 48.4421 34.0846 48.8895C35.1669 49.0206 36.2203 48.9578 37.3113 48.6746C38.2488 48.4462 39.156 48.0652 39.9918 47.5287C40.8594 46.9701 41.584 46.2335 42.2864 45.3516C42.3003 45.3355 42.3148 45.3211 42.3287 45.3038C42.8159 44.6988 42.7257 43.8381 42.1903 43.4274C41.7388 43.0807 40.9806 42.94 40.3843 43.7053C40.2561 43.8882 40.1132 44.0761 39.9555 44.2645C39.4812 44.7896 38.8929 45.298 38.1877 45.6928C37.2907 46.1728 36.2681 46.4473 35.1815 46.4536C31.6238 46.4137 29.7202 43.9261 29.0429 42.1503C28.9246 41.8194 28.8334 41.475 28.7698 41.1213C28.7616 41.0547 28.7553 40.991 28.7529 40.9322C29.4887 40.9322 41.5195 40.9296 41.5195 40.9296C43.2697 40.8933 44.2116 39.6557 43.9513 38.2405Z" fill="#00ADED"/>
</svg>
