<svg xmlns="http://www.w3.org/2000/svg" width="300" height="46" fill="none"><path fill="#1E6EFA" fill-rule="evenodd" d="M34.626 45.944H6.814C3.051 45.944 0 42.887 0 39.117s3.05-6.828 6.814-6.83l15.76-.008a7.245 7.245 0 0 1 6.281 3.635l5.77 10.03z" clip-rule="evenodd"/><path fill="#FF3C5A" fill-rule="evenodd" d="M5.163 28.439 19.068 4.31a6.808 6.808 0 0 1 9.309-2.499 6.837 6.837 0 0 1 2.497 9.327l-7.872 13.677a7.245 7.245 0 0 1-6.284 3.633l-11.555-.009z" clip-rule="evenodd"/><path fill="#FFC5CE" fill-rule="evenodd" d="m35.069 11.63 13.906 24.128a6.833 6.833 0 0 1-2.495 9.326 6.811 6.811 0 0 1-9.311-2.497l-7.886-13.668a7.271 7.271 0 0 1 0-7.268L35.07 11.63z" clip-rule="evenodd"/><path fill="#00143C" d="M62.362 36.707c0 4.695 3.895 9.024 10.286 9.024 4.443 0 7.304-2.073 8.825-4.451 0 1.158.122 2.804.305 3.597h7.425c-.183-1.036-.365-3.17-.365-4.756V25.365c0-6.036-3.53-11.402-13.025-11.402-8.034 0-12.355 5.183-12.842 9.878l7.182 1.524c.243-2.622 2.19-4.878 5.72-4.878 3.41 0 5.053 1.769 5.053 3.903 0 1.036-.548 1.89-2.252 2.134l-7.365 1.097c-4.99.732-8.947 3.72-8.947 9.086zm11.99 2.987c-2.617 0-3.895-1.707-3.895-3.475 0-2.317 1.643-3.476 3.713-3.78l6.756-1.037v1.341c0 5.305-3.165 6.951-6.574 6.951zm30.014-33.779h-7.303v4.207c0 2.683-1.461 4.756-4.626 4.756h-1.522v7.195h5.417v13.963c0 5.792 3.652 9.268 9.495 9.268 2.374 0 3.835-.427 4.565-.732v-6.707c-.426.122-1.522.244-2.495.244-2.313 0-3.531-.854-3.531-3.476v-12.56h6.026v-7.195h-6.026V5.915zm23.74 32.499c-3.956 0-7.608-2.927-7.608-8.537 0-5.67 3.652-8.536 7.608-8.536 3.957 0 7.608 2.866 7.608 8.536 0 5.671-3.651 8.537-7.608 8.537zm0-24.45c-8.947 0-15.703 6.645-15.703 15.913 0 9.208 6.756 15.915 15.703 15.915s15.703-6.707 15.703-15.915c0-9.268-6.756-15.914-15.703-15.914zm27.145 30.913v-17.56c0-3.293 2.069-5.915 5.599-5.915 3.652 0 5.296 2.439 5.296 5.67v17.805h8.034v-17.56c0-3.232 2.069-5.915 5.538-5.915 3.713 0 5.296 2.439 5.296 5.67v17.805h7.851v-19.45c0-8.05-5.295-11.403-10.834-11.403-3.956 0-7.121 1.342-9.495 5-1.521-3.232-4.808-5-8.886-5-3.287 0-7.121 1.585-8.764 4.512v-3.658h-7.73v30h8.095zm51.475 0v-30h-8.095v30h8.095zm-9.068-39.816c0 2.683 2.252 4.939 4.99 4.939 2.8 0 4.991-2.256 4.991-4.94 0-2.804-2.191-5.06-4.991-5.06-2.738 0-4.99 2.256-4.99 5.06zm28.751 16.402c4.017 0 5.904 2.56 6.635 5.06l7.242-2.438c-1.278-5.061-5.903-10.122-14.059-10.122-8.704 0-15.521 6.646-15.521 15.914 0 9.208 6.939 15.915 15.764 15.915 7.973 0 12.66-5.122 13.999-10.122l-7.121-2.378c-.67 2.317-2.739 5.06-6.878 5.06s-7.669-3.048-7.669-8.475c0-5.426 3.47-8.414 7.608-8.414zm16.117 18.841a4.915 4.915 0 0 0 4.93 4.939c2.739 0 4.991-2.195 4.991-4.939s-2.252-5-4.991-5c-2.738 0-4.93 2.256-4.93 5zm22.088 4.573v-30h-8.095v30h8.095zm-9.069-39.816c0 2.683 2.252 4.939 4.991 4.939 2.8 0 4.991-2.256 4.991-4.94 0-2.804-2.191-5.06-4.991-5.06-2.739 0-4.991 2.256-4.991 5.06zm28.752 33.353c-3.956 0-7.608-2.927-7.608-8.537 0-5.67 3.652-8.536 7.608-8.536 3.956 0 7.608 2.866 7.608 8.536 0 5.671-3.652 8.537-7.608 8.537zm0-24.45c-8.947 0-15.703 6.645-15.703 15.913 0 9.208 6.756 15.915 15.703 15.915S300 39.085 300 29.877c0-9.268-6.756-15.914-15.703-15.914z"/></svg>