<?xml version="1.0" encoding="UTF-8"?>
<svg width="227px" height="43px" viewBox="0 0 227 43" version="1.1" xmlns="http://www.w3.org/2000/svg" xmlns:xlink="http://www.w3.org/1999/xlink">
    <title>Goodworld/Colour</title>
    <g id="Page-1" stroke="none" stroke-width="1" fill="none" fill-rule="evenodd">
        <g id="Goodworld-red" fill="#FFFFFF">
            <path d="M20.8839209,21.2308397 L16.7449479,21.2308397 L17.2529738,17.0781298 L21.3921065,17.0781298 L20.8839209,21.2308397 Z M32.7103796,0.981068702 C32.7103796,0.981068702 26.1055641,0 19.06014,0 C13.6822548,0.00801526718 8.86767136,0.496625954 5.41085888,0.981068702 C2.26029973,1.42254962 -0.060164321,4.16136641 0.00118219855,7.3530458 C0.0527835679,10.0392824 0.506172689,22.6583588 0.506172689,24.1584962 C0.506172689,32.0299695 10.5122054,41.9110305 19.030585,41.9110305 C27.5491244,41.9110305 37.5549973,32.0299695 37.5549973,24.1584962 C37.614267,23.0636107 37.6312012,21.9573435 37.6617147,21.2245878 C37.857097,16.5236336 35.2543431,12.9715878 28.245024,12.9715878 L26.017698,12.9715878 L26.3009464,10.6574198 C26.3503111,10.2539313 26.0365493,9.89821374 25.6315664,9.89821374 L22.8672986,9.89821374 C22.5266976,9.89821374 22.2394553,10.1530992 22.1979186,10.4924656 L21.8945409,12.9715878 L17.7555679,12.9715878 L18.0386565,10.6574198 C18.0880213,10.2540916 17.7744192,9.89821374 17.3692765,9.89821374 L14.6051685,9.89821374 C14.2645675,9.89821374 13.9773252,10.1530992 13.9357885,10.4924656 L13.6324108,12.9715878 L10.1716044,12.9715878 C9.79905211,12.9715878 9.49711221,13.2745649 9.49711221,13.6482366 L9.49711221,16.4013206 C9.49711221,16.7751527 9.79905211,17.0781298 10.1716044,17.0781298 L13.1299764,17.0781298 L12.6217908,21.2308397 L10.1716044,21.2308397 C9.79905211,21.2308397 9.49711221,21.5338168 9.49711221,21.9076489 L9.49711221,24.6607328 C9.49711221,25.0344046 9.79905211,25.337542 10.1716044,25.337542 L12.1191967,25.337542 L11.8343507,27.6656565 C11.7849859,28.069145 12.0987478,28.4248626 12.5037307,28.4248626 L15.2678387,28.4248626 C15.6085995,28.4248626 15.895682,28.1699771 15.9372187,27.8306107 L16.2423537,25.337542 L20.3813267,25.337542 L20.0964808,27.6656565 C20.047116,28.069145 20.3608779,28.4248626 20.7660205,28.4248626 L23.5299688,28.4248626 C23.8707296,28.4248626 24.1579719,28.1699771 24.1995086,27.8306107 L24.5044838,25.337542 L27.947078,25.337542 C28.3878463,25.337542 28.6214104,24.9582595 28.6214104,24.6607328 L28.6214104,21.9076489 C28.6214104,21.5474427 28.3295352,21.2308397 27.9520304,21.2308397 L25.007078,21.2308397 L25.5152636,17.0781298 L28.5011137,17.0781298 C32.7303492,17.0781298 33.5398357,18.8119924 33.5300905,22.1179695 C33.528493,22.6439313 33.5259369,23.2115725 33.4796075,23.7734427 C33.4796075,30.5170076 25.2858532,37.8192366 19.030585,37.8192366 C12.7754766,37.8192366 4.58172233,30.5170076 4.58172233,23.7734427 C4.58172233,23.0361985 4.08759528,7.24836641 4.08759528,7.24836641 C4.06682693,6.13761069 4.87343781,5.19854198 5.96713123,5.02541221 C9.35381057,4.48919084 13.7921674,4.11455725 19.0452826,4.10670229 C19.0502351,4.10670229 19.0551875,4.1068626 19.06014,4.1068626 L19.06014,4.1068626 L19.0606192,4.1068626 L19.0610985,4.1068626 L19.0610985,4.1068626 C19.0662107,4.1068626 19.0710034,4.10670229 19.0761156,4.10670229 C25.2083712,4.10670229 29.8302883,4.61967939 32.1523499,5.0250916 C33.2108969,5.20992366 34.0317261,6.05008397 34.0317261,7.27385496 C34.0317261,8.59781679 34.0060053,8.62458779 33.9897102,9.38844275 C33.9815626,9.76692366 34.2852598,10.0783969 34.6627645,10.0783969 L37.3982762,10.0783969 C37.7634797,10.0783969 38.0505622,9.78487786 38.0713305,9.41890076 C38.1243697,8.48143511 38.113666,7.69241221 38.1202161,7.3530458 L38.1202161,7.3530458 C38.1202161,5.1119771 36.8183598,1.56409924 32.7103796,0.981068702 L32.7103796,0.981068702 Z" id="G"></path>
            <path d="M109.392383,16.1973184 C114.658651,16.1973184 118.927695,20.4635319 118.927695,25.7263098 C118.927695,30.9890877 114.658651,35.2553012 109.392383,35.2553012 C104.126114,35.2553012 99.8570704,30.9890877 99.8570704,25.7263098 C99.8570704,20.4635319 104.126114,16.1973184 109.392383,16.1973184 Z M178.195656,16.1973184 C183.461925,16.1973184 187.730968,20.4635319 187.730968,25.7263098 C187.730968,30.9890877 183.461925,35.2553012 178.195656,35.2553012 C172.929387,35.2553012 168.660344,30.9890877 168.660344,25.7263098 C168.660344,20.4635319 172.929387,16.1973184 178.195656,16.1973184 Z M88.9629402,16.1973184 C94.229209,16.1973184 98.4982523,20.4635319 98.4982523,25.7263098 C98.4982523,30.9890877 94.229209,35.2553012 88.9629402,35.2553012 C83.6966714,35.2553012 79.427628,30.9890877 79.427628,25.7263098 C79.427628,20.4635319 83.6966714,16.1973184 88.9629402,16.1973184 Z M226.084718,6.92022183 C226.464254,6.92022183 226.771622,7.22738658 226.771622,7.60667112 L226.771622,34.2660799 C226.771622,34.6450366 226.464254,34.9525292 226.084718,34.9525292 L223.355141,34.9525292 C222.975605,34.9525292 222.668236,34.6450366 222.668236,34.2660799 L222.66854,32.8943558 C221.066667,34.3642945 218.967851,35.2553012 216.670286,35.2553012 C211.642499,35.2553012 207.566668,30.9890877 207.566668,25.7263098 C207.566668,20.4635319 211.642499,16.1973184 216.670286,16.1973184 C218.967851,16.1973184 221.066667,17.0883252 222.66854,18.5582639 L222.668236,7.60667112 C222.668236,7.22738658 222.975605,6.92022183 223.355141,6.92022183 L226.084718,6.92022183 Z M138.737348,6.92022183 C139.116884,6.92022183 139.424253,7.22738658 139.424253,7.60667112 L139.424253,34.2660799 C139.424253,34.6450366 139.116884,34.9525292 138.737348,34.9525292 L136.007772,34.9525292 C135.628236,34.9525292 135.320867,34.6450366 135.320867,34.2660799 L135.321221,32.89431 C133.719341,34.364276 131.620506,35.2553012 129.322917,35.2553012 C124.295129,35.2553012 120.219298,30.9890877 120.219298,25.7263098 C120.219298,20.4635319 124.295129,16.1973184 129.322917,16.1973184 C131.620506,16.1973184 133.719341,17.0883437 135.321221,18.5583096 L135.320867,7.60667112 C135.320867,7.22738658 135.628236,6.92022183 136.007772,6.92022183 L138.737348,6.92022183 Z M65.7796139,6.88717785 C70.3537295,6.88717785 73.8230243,8.76622624 75.967387,11.3622109 C76.2422801,11.6952732 76.1441977,12.1974892 75.7705662,12.4138486 L73.1574419,13.9277086 C72.8628668,14.0985014 72.4915315,14.0326101 72.2697801,13.774618 C70.9346789,12.2227312 68.7798191,10.9222802 65.7277844,10.9222802 C60.3266934,10.9222802 56.1849275,15.2855276 56.1849275,21.0793694 C56.1849275,26.7706044 60.1023176,31.2541607 65.6930127,31.2541607 C69.346663,31.2541607 71.8023306,29.6898169 73.0675604,27.4724611 C73.0665763,27.4731167 73.0721529,27.4642657 73.0777295,27.4560703 C73.2315777,27.1849654 73.3611514,26.9017313 73.479572,26.6129243 C73.7416717,25.9238525 74.0464159,24.8066514 74.1294087,23.2101814 C74.1464665,22.8872814 73.8879751,22.6142097 73.564861,22.6142097 L66.414689,22.6142097 C66.0253118,22.6142097 65.7097425,22.2988495 65.7097425,21.9097305 L65.7097425,19.309812 C65.7097425,18.9206929 66.0253118,18.6053327 66.414689,18.6053327 L74.6709939,18.6053327 C77.0954983,18.6053327 78.294137,20.2949028 78.294137,21.9720157 L78.2947706,22.5933737 L78.2947931,22.6151931 C78.2947931,29.6157302 73.7692266,35.2551701 65.7277844,35.2551701 C57.410137,35.2551701 52.0047815,29.2371013 52.0047815,21.1659131 C52.0047815,12.9229488 57.7555575,6.88717785 65.7796139,6.88717785 Z M144.356615,16.5833232 C144.655127,16.5833232 144.919523,16.7760798 145.010716,17.0599695 L148.58039,28.1739572 L152.150063,17.0599695 C152.241257,16.7760798 152.505653,16.5833232 152.804164,16.5833232 L157.05287,16.5833232 C157.351381,16.5833232 157.615449,16.7760798 157.706971,17.0599695 L161.276316,28.1739572 L164.845989,17.0599695 C164.937183,16.7760798 165.201579,16.5833232 165.500091,16.5833232 L168.369082,16.5833232 C168.834235,16.5833232 169.164894,17.0353832 169.023511,17.4782643 L163.606018,34.4742767 C163.515153,34.7591498 163.250429,34.952562 162.951261,34.952562 L159.644672,34.952562 C159.34616,34.952562 159.082092,34.7598055 158.99057,34.4759157 L154.928189,21.8277434 L150.866135,34.4759157 C150.774942,34.7598055 150.510546,34.952562 150.212034,34.952562 L146.948745,34.952562 C146.650234,34.952562 146.385838,34.7598055 146.294644,34.4759157 L140.835819,17.4795756 C140.693452,17.0363667 141.024111,16.5833232 141.48992,16.5833232 Z M199.707285,16.2126603 C200.019574,16.2129881 200.268552,16.4762254 200.268552,16.7886352 L200.268552,19.6940793 C200.268552,20.0317311 199.978898,20.3031638 199.642662,20.2671039 C199.455682,20.247107 199.266078,20.236289 199.07385,20.236289 C196.047074,20.236289 193.592718,22.6762327 193.56746,25.6947738 L193.558275,34.2658832 C193.558275,34.6451678 193.250578,34.9523325 192.87137,34.9523325 L190.141465,34.9523325 C189.762257,34.9523325 189.454561,34.6451678 189.454561,34.2658832 L189.454561,17.2698709 C189.454561,16.8905863 189.762257,16.5834216 190.141465,16.5834216 L192.87137,16.5834216 C193.250578,16.5834216 193.558275,16.8905863 193.558275,17.2698709 L193.558275,18.8083172 C193.997841,18.3670752 194.480708,17.9753336 194.998675,17.6353871 C195.687548,17.1007172 196.472207,16.7506084 197.281796,16.571948 C198.05235,16.3431316 198.861611,16.2126603 199.70138,16.2126603 Z M205.278921,6.92022183 C205.658129,6.92022183 205.965826,7.22738658 205.965826,7.60667112 L205.965826,34.2660799 C205.965826,34.6450366 205.658129,34.9525292 205.278921,34.9525292 L202.549345,34.9525292 C202.169808,34.9525292 201.862112,34.6450366 201.862112,34.2660799 L201.862112,7.60667112 C201.862112,7.22738658 202.169808,6.92022183 202.549345,6.92022183 L205.278921,6.92022183 Z M109.392383,20.221275 C106.349861,20.221275 103.883696,22.685805 103.883696,25.7263098 C103.883696,28.7664869 106.349861,31.2313447 109.392383,31.2313447 C112.434904,31.2313447 114.901069,28.7664869 114.901069,25.7263098 C114.901069,22.685805 112.434904,20.221275 109.392383,20.221275 Z M178.195656,20.221275 C175.153134,20.221275 172.68697,22.685805 172.68697,25.7263098 C172.68697,28.7664869 175.153134,31.2313447 178.195656,31.2313447 C181.23785,31.2313447 183.704342,28.7664869 183.704342,25.7263098 C183.704342,22.685805 181.23785,20.221275 178.195656,20.221275 Z M88.9629402,20.221275 C85.9204185,20.221275 83.4542538,22.685805 83.4542538,25.7263098 C83.4542538,28.7664869 85.9204185,31.2313447 88.9629402,31.2313447 C92.0051338,31.2313447 94.4716266,28.7664869 94.4716266,25.7263098 C94.4716266,22.685805 92.0051338,20.221275 88.9629402,20.221275 Z M217.10198,20.221275 C214.059786,20.221275 211.593293,22.685805 211.593293,25.7263098 C211.593293,28.7664869 214.059786,31.2313447 217.10198,31.2313447 C220.144502,31.2313447 222.610666,28.7664869 222.610666,25.7263098 C222.610666,22.685805 220.144502,20.221275 217.10198,20.221275 Z M129.754611,20.221275 C126.712089,20.221275 124.245924,22.685805 124.245924,25.7263098 C124.245924,28.7664869 126.712089,31.2313447 129.754611,31.2313447 C132.797132,31.2313447 135.263297,28.7664869 135.263297,25.7263098 C135.263297,22.685805 132.797132,20.221275 129.754611,20.221275 Z" id="Goodworld"></path>
        </g>
    </g>
</svg>